<svg version="1.1" xmlns="http://www.w3.org/2000/svg" xmlns:xlink="http://www.w3.org/1999/xlink" height="24" x="0px" y="0px" viewBox="0 0 21.2 25.3" style="enable-background:new 0 0 21.2 25.3;" xml:space="preserve">
<path class="active-orange" style="stroke:none" d="M10.6,0C7,0,4,3,4,6.6c0,3.7,3,6.6,6.6,6.6c3.7,0,6.6-3,6.6-6.6C17.2,3,14.3,0,10.6,0z M10.6,12.2 C7.5,12.2,5,9.7,5,6.6C5,3.5,7.5,1,10.6,1s5.6,2.5,5.6,5.6C16.2,9.7,13.7,12.2,10.6,12.2z"/>
<path class="active-orange" style="stroke:none" d="M0.5,25.3C0.5,25.3,0.5,25.3,0.5,25.3C0.2,25.3,0,25,0,24.7c0-0.1,0.6-9.4,10.7-9.4c10.1,0,10.5,9.3,10.5,9.4 c0,0.3-0.2,0.5-0.5,0.5c0,0,0,0,0,0c-0.3,0-0.5-0.2-0.5-0.5c0-0.3-0.4-8.4-9.5-8.4c-3.9,0-6.7,1.4-8.3,4.2C1.1,22.7,1,24.8,1,24.8 C1,25.1,0.8,25.3,0.5,25.3z"/>
</svg>