<svg version="1.1" xmlns="http://www.w3.org/2000/svg" xmlns:xlink="http://www.w3.org/1999/xlink" height="24" x="0px" y="0px" viewBox="0 0 27.2 25.1" style="enable-background:new 0 0 27.2 25.1; width:25px;max-width:25px;" xml:space="preserve">
<path class="active-orange" style="stroke:none" d="M13.6,25.1C13.6,25.1,13.6,25.1,13.6,25.1c-0.2,0-0.3-0.1-0.3-0.1l0,0C11.5,23.7,3.2,15,2.2,13.7c-3-3.5-2.2-6.9-1.5-8.6 C1.4,3.3,3.7,0.2,7.3,0c3.4-0.2,5.4,2.1,6.3,3.7c0.9-1.6,2.9-3.9,6.3-3.7c3.6,0.1,5.8,3.3,6.6,5.1c0.7,1.7,1.5,5.1-1.5,8.6 C24,15,15.7,23.7,13.9,25l0,0C13.9,25.1,13.8,25.1,13.6,25.1C13.6,25.1,13.6,25.1,13.6,25.1C13.6,25.1,13.6,25.1,13.6,25.1z M13.9,24.3C13.9,24.3,13.9,24.3,13.9,24.3S13.9,24.3,13.9,24.3z M13.9,24.3C13.9,24.3,13.9,24.3,13.9,24.3S13.9,24.3,13.9,24.3z M13.9,24.3L13.9,24.3L13.9,24.3z M13.9,24.2C13.9,24.2,13.9,24.3,13.9,24.2C13.9,24.3,13.9,24.2,13.9,24.2z M7.8,1   C7.6,1,7.5,1,7.3,1C3.5,1.2,1.7,5.3,1.6,5.5C0.9,7,0.3,10,2.9,13.1c2.3,2.7,9.2,9.7,10.7,10.9c1.4-1.2,8.4-8.2,10.7-10.9 c2.7-3.1,2-6.1,1.3-7.6l0,0c-0.1-0.2-1.9-4.3-5.7-4.5c-3.5-0.3-5.2,2.7-5.8,4c-0.1,0.2-0.3,0.3-0.5,0.3l0,0c-0.2,0-0.4-0.1-0.5-0.3 C12.6,3.8,11,1,7.8,1z"/>
</svg>