<svg version="1.1" xmlns="http://www.w3.org/2000/svg" xmlns:xlink="http://www.w3.org/1999/xlink" x="0px" y="0px" viewBox="0 0 14.8 18.6" xml:space="preserve">
<path class="active-orange" style="stroke:none" d="M10.5,18.6H4.2C0,18.6,0,15.2,0,15.1V4.9h14.8v10.2C14.8,15.2,14.7,18.6,10.5,18.6z M0.8,5.7v9.4c0,0.1,0.1,2.7,3.4,2.7 h6.3c3.4,0,3.4-2.6,3.4-2.7V5.7H0.8z"/>
<path class="active-orange" style="stroke:none" d="M10.1,9.2C9.9,9.2,9.7,9,9.7,8.8V2.9c0-0.1,0.1-0.9-0.4-1.4C8.9,1,8.3,0.8,7.4,0.8C6.5,0.8,5.9,1,5.5,1.5 C5,2,5.1,2.8,5.1,2.8l0,6c0,0.2-0.2,0.4-0.4,0.4S4.3,9,4.3,8.8V2.9l0,0c0,0-0.1-1.1,0.6-2C5.4,0.3,6.3,0,7.4,0 c1.1,0,1.9,0.3,2.5,0.9c0.8,0.9,0.6,2,0.6,2l0,5.9C10.5,9,10.3,9.2,10.1,9.2z"/>
</svg>